<svg xmlns="http://www.w3.org/2000/svg" viewBox="0 0 96 96">
  <defs>
    <radialGradient id="core" cx="50%" cy="50%" r="50%">
      <stop offset="0%" stop-color="#000000"/>
      <stop offset="54%" stop-color="#05020b"/>
      <stop offset="78%" stop-color="#5b22ff"/>
      <stop offset="100%" stop-color="#30d8ff"/>
    </radialGradient>
    <linearGradient id="ring" x1="12" y1="72" x2="84" y2="24">
      <stop offset="0%" stop-color="#26e6ff"/>
      <stop offset="45%" stop-color="#8b5cff"/>
      <stop offset="100%" stop-color="#ff4ddb"/>
    </linearGradient>
  </defs>
  <rect width="96" height="96" rx="18" fill="#070711"/>
  <circle cx="48" cy="48" r="34" fill="#11132c"/>
  <ellipse cx="48" cy="49" rx="39" ry="13" fill="none" stroke="url(#ring)" stroke-width="7" opacity="0.88" transform="rotate(-18 48 49)"/>
  <ellipse cx="48" cy="49" rx="29" ry="9" fill="none" stroke="#a6f6ff" stroke-width="3" opacity="0.8" transform="rotate(-18 48 49)"/>
  <circle cx="48" cy="48" r="20" fill="url(#core)"/>
  <circle cx="48" cy="48" r="13" fill="#000000"/>
  <path d="M22 28c9-9 21-13 34-10M76 69c-9 8-21 11-33 8" fill="none" stroke="#67e8ff" stroke-width="4" stroke-linecap="round" opacity="0.78"/>
  <path d="M69 20l5 2-3 4M24 75l-5-2 3-4" fill="none" stroke="#ff5be1" stroke-width="4" stroke-linecap="round" stroke-linejoin="round"/>
</svg>
