<svg xmlns="http://www.w3.org/2000/svg" viewBox="0 0 64 64">
  <defs>
    <linearGradient id="g" x1="12" y1="8" x2="52" y2="58" gradientUnits="userSpaceOnUse">
      <stop stop-color="#9ff7ff"/>
      <stop offset="0.55" stop-color="#8d7dff"/>
      <stop offset="1" stop-color="#ff74d4"/>
    </linearGradient>
    <filter id="glow" x="-40%" y="-40%" width="180%" height="180%">
      <feGaussianBlur stdDeviation="2.4" result="b"/>
      <feMerge>
        <feMergeNode in="b"/>
        <feMergeNode in="SourceGraphic"/>
      </feMerge>
    </filter>
  </defs>
  <path fill="#07111f" d="M0 0h64v64H0z"/>
  <g filter="url(#glow)">
    <path fill="none" stroke="url(#g)" stroke-width="3.2" stroke-linecap="round" d="M18 48c3.5-8 8.2-12 14-12s10.5 4 14 12"/>
    <path fill="url(#g)" d="M32 10c7 0 12.5 5.6 12.5 12.5S39 35 32 35s-12.5-5.6-12.5-12.5S25 10 32 10Z"/>
    <path fill="#07111f" opacity=".72" d="M32 15.5c3.9 0 7 3.1 7 7s-3.1 7-7 7-7-3.1-7-7 3.1-7 7-7Z"/>
    <path fill="none" stroke="#9ff7ff" stroke-width="2" stroke-linecap="round" opacity=".9" d="M13 20c-4 7-4 17 0 24M51 20c4 7 4 17 0 24"/>
    <path fill="none" stroke="#ff74d4" stroke-width="2" stroke-linecap="round" opacity=".8" d="M8 15c-6 10-6 28 0 38M56 15c6 10 6 28 0 38"/>
  </g>
</svg>
