<svg xmlns="http://www.w3.org/2000/svg" viewBox="0 0 64 64">
  <defs>
    <linearGradient id="bg" x1="0" y1="0" x2="0" y2="1">
      <stop offset="0%" stop-color="#29110d" />
      <stop offset="100%" stop-color="#090909" />
    </linearGradient>
    <linearGradient id="blade" x1="0" y1="0" x2="1" y2="1">
      <stop offset="0%" stop-color="#ffe1b3" />
      <stop offset="100%" stop-color="#b84a1d" />
    </linearGradient>
  </defs>
  <rect width="64" height="64" rx="14" fill="url(#bg)" />
  <path d="M32 6 44 20 35 29 29 35 20 44 6 32l13-7 6-6 7-13Z" fill="#5f130d" />
  <path d="M34 10 54 30 35 49 30 44 44 30 30 16Z" fill="url(#blade)" />
  <path d="M18 34 30 46 25 51 13 39Z" fill="#d3c3a3" />
  <path d="M13 39 25 51 20 56 8 44Z" fill="#7f2414" />
  <circle cx="44" cy="20" r="4" fill="#ffb25c" />
  <path d="M43 12c2 3 6 5 9 5-3 1-7 3-9 6-1-3-4-5-7-6 3 0 6-2 7-5Z" fill="#ff7a2f" />
</svg>
